<svg width="18" height="18" viewBox="0 0 18 18" fill="none" xmlns="http://www.w3.org/2000/svg">
<path d="M7.3 12.8L4.2 9.7C3.8 9.3 3.8 8.7 4.2 8.3C4.6 7.9 5.2 7.9 5.6 8.3L8 10.7L12.9 5.8C13.3 5.4 13.9 5.4 14.3 5.8C14.7 6.2 14.7 6.8 14.3 7.2L8.7 12.8C8.3 13.2 7.7 13.2 7.3 12.8ZM18 15V3C18 1.3 16.7 0 15 0H3C1.3 0 0 1.3 0 3V15C0 16.7 1.3 18 3 18H15C16.7 18 18 16.7 18 15ZM15 2C15.6 2 16 2.4 16 3V15C16 15.6 15.6 16 15 16H3C2.4 16 2 15.6 2 15V3C2 2.4 2.4 2 3 2H15Z" fill="#8162FF" fill-opacity="0.88"/>
</svg>
